<svg id="export-svg" width="100%" xmlns="http://www.w3.org/2000/svg" style="max-width: 2820px; background: rgb(255, 255, 255);" viewBox="-50 -10 2820 1753" role="graphics-document document" aria-roledescription="sequence"><style xmlns="http://www.w3.org/1999/xhtml">p {margin: 0;}</style><g><rect x="2570" y="1637" fill="#eaeaea" stroke="#666" width="150" height="65" name="Reporter" rx="6" ry="6" class="actor actor-bottom" data-look="neo" filter="url(#export-svg-drop-shadow)"/><text x="2645" y="1669.5" style="text-anchor: middle; font-size: 16px; font-weight: 400;" dominant-baseline="central" alignment-baseline="central" class="actor actor-box"><tspan x="2645" dy="0">Reporter</tspan></text></g><g><rect x="2370" y="1637" fill="#eaeaea" stroke="#666" width="150" height="65" name="Echidna" rx="6" ry="6" class="actor actor-bottom" data-look="neo" filter="url(#export-svg-drop-shadow)"/><text x="2445" y="1669.5" style="text-anchor: middle; font-size: 16px; font-weight: 400;" dominant-baseline="central" alignment-baseline="central" class="actor actor-box"><tspan x="2445" dy="0">Echidna</tspan></text></g><g><rect x="2170" y="1637" fill="#eaeaea" stroke="#666" width="150" height="65" name="Catalog" rx="6" ry="6" class="actor actor-bottom" data-look="neo" filter="url(#export-svg-drop-shadow)"/><text x="2245" y="1669.5" style="text-anchor: middle; font-size: 16px; font-weight: 400;" dominant-baseline="central" alignment-baseline="central" class="actor actor-box"><tspan x="2245" dy="0">SWC Catalog</tspan></text></g><g><rect x="1878" y="1637" fill="#eaeaea" stroke="#666" width="150" height="65" name="Adapter" rx="6" ry="6" class="actor actor-bottom" data-look="neo" filter="url(#export-svg-drop-shadow)"/><text x="1953" y="1669.5" style="text-anchor: middle; font-size: 16px; font-weight: 400;" dominant-baseline="central" alignment-baseline="central" class="actor actor-box"><tspan x="1953" dy="0">Echidna Adapter</tspan></text></g><g><rect x="1678" y="1637" fill="#eaeaea" stroke="#666" width="150" height="65" name="Correlator" rx="6" ry="6" class="actor actor-bottom" data-look="neo" filter="url(#export-svg-drop-shadow)"/><text x="1753" y="1669.5" style="text-anchor: middle; font-size: 16px; font-weight: 400;" dominant-baseline="central" alignment-baseline="central" class="actor actor-box"><tspan x="1753" dy="0">Correlator</tspan></text></g><g><rect x="1478" y="1637" fill="#eaeaea" stroke="#666" width="150" height="65" name="Normalizer" rx="6" ry="6" class="actor actor-bottom" data-look="neo" filter="url(#export-svg-drop-shadow)"/><text x="1553" y="1669.5" style="text-anchor: middle; font-size: 16px; font-weight: 400;" dominant-baseline="central" alignment-baseline="central" class="actor actor-box"><tspan x="1553" dy="0">Normalizer</tspan></text></g><g><rect x="1278" y="1637" fill="#eaeaea" stroke="#666" width="150" height="65" name="Mythril" rx="6" ry="6" class="actor actor-bottom" data-look="neo" filter="url(#export-svg-drop-shadow)"/><text x="1353" y="1669.5" style="text-anchor: middle; font-size: 16px; font-weight: 400;" dominant-baseline="central" alignment-baseline="central" class="actor actor-box"><tspan x="1353" dy="0">Mythril</tspan></text></g><g><rect x="1078" y="1637" fill="#eaeaea" stroke="#666" width="150" height="65" name="Slither" rx="6" ry="6" class="actor actor-bottom" data-look="neo" filter="url(#export-svg-drop-shadow)"/><text x="1153" y="1669.5" style="text-anchor: middle; font-size: 16px; font-weight: 400;" dominant-baseline="central" alignment-baseline="central" class="actor actor-box"><tspan x="1153" dy="0">Slither</tspan></text></g><g><rect x="802" y="1637" fill="#eaeaea" stroke="#666" width="150" height="65" name="Runner" rx="6" ry="6" class="actor actor-bottom" data-look="neo" filter="url(#export-svg-drop-shadow)"/><text x="877" y="1669.5" style="text-anchor: middle; font-size: 16px; font-weight: 400;" dominant-baseline="central" alignment-baseline="central" class="actor actor-box"><tspan x="877" dy="0">Runner</tspan></text></g><g><rect x="308" y="1637" fill="#eaeaea" stroke="#666" width="150" height="65" name="Client" rx="6" ry="6" class="actor actor-bottom" data-look="neo" filter="url(#export-svg-drop-shadow)"/><text x="383" y="1669.5" style="text-anchor: middle; font-size: 16px; font-weight: 400;" dominant-baseline="central" alignment-baseline="central" class="actor actor-box"><tspan x="383" dy="0">CLI / Web App</tspan></text></g><g/><g><line id="actor32" x1="2645" y1="65" x2="2645" y2="1637" class="actor-line 200" stroke-width="0.5px" stroke="#999" name="Reporter" data-et="life-line" data-id="Reporter"/><g id="root-32" data-look="neo" data-et="participant" data-type="participant" data-id="Reporter"><rect x="2570" y="0" fill="#eaeaea" stroke="#666" width="150" height="65" name="Reporter" rx="6" ry="6" class="actor actor-top" data-look="neo" filter="url(#export-svg-drop-shadow)"/><text x="2645" y="32.5" style="text-anchor: middle; font-size: 16px; font-weight: 400;" dominant-baseline="central" alignment-baseline="central" class="actor actor-box"><tspan x="2645" dy="0">Reporter</tspan></text></g></g><g><line id="actor31" x1="2445" y1="65" x2="2445" y2="1637" class="actor-line 200" stroke-width="0.5px" stroke="#999" name="Echidna" data-et="life-line" data-id="Echidna"/><g id="root-31" data-look="neo" data-et="participant" data-type="participant" data-id="Echidna"><rect x="2370" y="0" fill="#eaeaea" stroke="#666" width="150" height="65" name="Echidna" rx="6" ry="6" class="actor actor-top" data-look="neo" filter="url(#export-svg-drop-shadow)"/><text x="2445" y="32.5" style="text-anchor: middle; font-size: 16px; font-weight: 400;" dominant-baseline="central" alignment-baseline="central" class="actor actor-box"><tspan x="2445" dy="0">Echidna</tspan></text></g></g><g><line id="actor30" x1="2245" y1="65" x2="2245" y2="1637" class="actor-line 200" stroke-width="0.5px" stroke="#999" name="Catalog" data-et="life-line" data-id="Catalog"/><g id="root-30" data-look="neo" data-et="participant" data-type="participant" data-id="Catalog"><rect x="2170" y="0" fill="#eaeaea" stroke="#666" width="150" height="65" name="Catalog" rx="6" ry="6" class="actor actor-top" data-look="neo" filter="url(#export-svg-drop-shadow)"/><text x="2245" y="32.5" style="text-anchor: middle; font-size: 16px; font-weight: 400;" dominant-baseline="central" alignment-baseline="central" class="actor actor-box"><tspan x="2245" dy="0">SWC Catalog</tspan></text></g></g><g><line id="actor29" x1="1953" y1="65" x2="1953" y2="1637" class="actor-line 200" stroke-width="0.5px" stroke="#999" name="Adapter" data-et="life-line" data-id="Adapter"/><g id="root-29" data-look="neo" data-et="participant" data-type="participant" data-id="Adapter"><rect x="1878" y="0" fill="#eaeaea" stroke="#666" width="150" height="65" name="Adapter" rx="6" ry="6" class="actor actor-top" data-look="neo" filter="url(#export-svg-drop-shadow)"/><text x="1953" y="32.5" style="text-anchor: middle; font-size: 16px; font-weight: 400;" dominant-baseline="central" alignment-baseline="central" class="actor actor-box"><tspan x="1953" dy="0">Echidna Adapter</tspan></text></g></g><g><line id="actor28" x1="1753" y1="65" x2="1753" y2="1637" class="actor-line 200" stroke-width="0.5px" stroke="#999" name="Correlator" data-et="life-line" data-id="Correlator"/><g id="root-28" data-look="neo" data-et="participant" data-type="participant" data-id="Correlator"><rect x="1678" y="0" fill="#eaeaea" stroke="#666" width="150" height="65" name="Correlator" rx="6" ry="6" class="actor actor-top" data-look="neo" filter="url(#export-svg-drop-shadow)"/><text x="1753" y="32.5" style="text-anchor: middle; font-size: 16px; font-weight: 400;" dominant-baseline="central" alignment-baseline="central" class="actor actor-box"><tspan x="1753" dy="0">Correlator</tspan></text></g></g><g><line id="actor27" x1="1553" y1="65" x2="1553" y2="1637" class="actor-line 200" stroke-width="0.5px" stroke="#999" name="Normalizer" data-et="life-line" data-id="Normalizer"/><g id="root-27" data-look="neo" data-et="participant" data-type="participant" data-id="Normalizer"><rect x="1478" y="0" fill="#eaeaea" stroke="#666" width="150" height="65" name="Normalizer" rx="6" ry="6" class="actor actor-top" data-look="neo" filter="url(#export-svg-drop-shadow)"/><text x="1553" y="32.5" style="text-anchor: middle; font-size: 16px; font-weight: 400;" dominant-baseline="central" alignment-baseline="central" class="actor actor-box"><tspan x="1553" dy="0">Normalizer</tspan></text></g></g><g><line id="actor26" x1="1353" y1="65" x2="1353" y2="1637" class="actor-line 200" stroke-width="0.5px" stroke="#999" name="Mythril" data-et="life-line" data-id="Mythril"/><g id="root-26" data-look="neo" data-et="participant" data-type="participant" data-id="Mythril"><rect x="1278" y="0" fill="#eaeaea" stroke="#666" width="150" height="65" name="Mythril" rx="6" ry="6" class="actor actor-top" data-look="neo" filter="url(#export-svg-drop-shadow)"/><text x="1353" y="32.5" style="text-anchor: middle; font-size: 16px; font-weight: 400;" dominant-baseline="central" alignment-baseline="central" class="actor actor-box"><tspan x="1353" dy="0">Mythril</tspan></text></g></g><g><line id="actor25" x1="1153" y1="65" x2="1153" y2="1637" class="actor-line 200" stroke-width="0.5px" stroke="#999" name="Slither" data-et="life-line" data-id="Slither"/><g id="root-25" data-look="neo" data-et="participant" data-type="participant" data-id="Slither"><rect x="1078" y="0" fill="#eaeaea" stroke="#666" width="150" height="65" name="Slither" rx="6" ry="6" class="actor actor-top" data-look="neo" filter="url(#export-svg-drop-shadow)"/><text x="1153" y="32.5" style="text-anchor: middle; font-size: 16px; font-weight: 400;" dominant-baseline="central" alignment-baseline="central" class="actor actor-box"><tspan x="1153" dy="0">Slither</tspan></text></g></g><g><line id="actor24" x1="877" y1="65" x2="877" y2="1637" class="actor-line 200" stroke-width="0.5px" stroke="#999" name="Runner" data-et="life-line" data-id="Runner"/><g id="root-24" data-look="neo" data-et="participant" data-type="participant" data-id="Runner"><rect x="802" y="0" fill="#eaeaea" stroke="#666" width="150" height="65" name="Runner" rx="6" ry="6" class="actor actor-top" data-look="neo" filter="url(#export-svg-drop-shadow)"/><text x="877" y="32.5" style="text-anchor: middle; font-size: 16px; font-weight: 400;" dominant-baseline="central" alignment-baseline="central" class="actor actor-box"><tspan x="877" dy="0">Runner</tspan></text></g></g><g><line id="actor23" x1="383" y1="65" x2="383" y2="1637" class="actor-line 200" stroke-width="0.5px" stroke="#999" name="Client" data-et="life-line" data-id="Client"/><g id="root-23" data-look="neo" data-et="participant" data-type="participant" data-id="Client"><rect x="308" y="0" fill="#eaeaea" stroke="#666" width="150" height="65" name="Client" rx="6" ry="6" class="actor actor-top" data-look="neo" filter="url(#export-svg-drop-shadow)"/><text x="383" y="32.5" style="text-anchor: middle; font-size: 16px; font-weight: 400;" dominant-baseline="central" alignment-baseline="central" class="actor actor-box"><tspan x="383" dy="0">CLI / Web App</tspan></text></g></g><g><line id="actor22" x1="75" y1="80" x2="75" y2="1637" class="actor-line 200" stroke-width="0.5px" stroke="#999" name="Usuario" data-et="life-line" data-id="Usuario"/></g><style>#export-svg{font-family:Inter,Arial;font-size:14px;fill:#1D3557;}@keyframes edge-animation-frame{from{stroke-dashoffset:0;}}@keyframes dash{to{stroke-dashoffset:0;}}#export-svg .edge-animation-slow{stroke-dasharray:9,5!important;stroke-dashoffset:900;animation:dash 50s linear infinite;stroke-linecap:round;}#export-svg .edge-animation-fast{stroke-dasharray:9,5!important;stroke-dashoffset:900;animation:dash 20s linear infinite;stroke-linecap:round;}#export-svg .error-icon{fill:hsl(33.9130434783, 100%, 100%);}#export-svg .error-text{fill:#000000;stroke:#000000;}#export-svg .edge-thickness-normal{stroke-width:1px;}#export-svg .edge-thickness-thick{stroke-width:3.5px;}#export-svg .edge-pattern-solid{stroke-dasharray:0;}#export-svg .edge-thickness-invisible{stroke-width:0;fill:none;}#export-svg .edge-pattern-dashed{stroke-dasharray:3;}#export-svg .edge-pattern-dotted{stroke-dasharray:2;}#export-svg .marker{fill:#6B9DD1;stroke:#6B9DD1;}#export-svg .marker.cross{stroke:#6B9DD1;}#export-svg svg{font-family:Inter,Arial;font-size:14px;}#export-svg p{margin:0;}#export-svg .actor{stroke:#6B9DD1;fill:#CFE7FF;stroke-width:1;}#export-svg rect.actor.outer-path[data-look="neo"]{filter:drop-shadow( 1px 2px 2px rgba(185,185,185,1));}#export-svg rect.note[data-look="neo"]{stroke:hsl(52.6829268293, 60%, 73.9215686275%);fill:#fff5ad;filter:drop-shadow( 1px 2px 2px rgba(185,185,185,1));stroke-width:1;}#export-svg text.actor&gt;tspan{fill:#1D3557;stroke:none;}#export-svg .actor-line{stroke:#6B9DD1;}#export-svg .innerArc{stroke-width:1.5;stroke-dasharray:none;}#export-svg .messageLine0{stroke-width:1;stroke-dasharray:none;stroke:#1D3557;}#export-svg .messageLine1{stroke-width:1;stroke-dasharray:2,2;stroke:#1D3557;}#export-svg [id$="-arrowhead"] path{fill:#1D3557;stroke:#1D3557;}#export-svg .sequenceNumber{fill:#1D3557;}#export-svg [id$="-sequencenumber"]{fill:#1D3557;}#export-svg [id$="-crosshead"] path{fill:#1D3557;stroke:#1D3557;}#export-svg .messageText{fill:#1D3557;stroke:none;}#export-svg .labelBox{stroke:#6B9DD1;fill:#CFE7FF;filter:drop-shadow( 1px 2px 2px rgba(185,185,185,1));}#export-svg .labelText,#export-svg .labelText&gt;tspan{fill:#1D3557;stroke:none;}#export-svg .loopText,#export-svg .loopText&gt;tspan{fill:#1D3557;stroke:none;}#export-svg .loopLine{stroke-width:2px;stroke-dasharray:2,2;stroke:#6B9DD1;fill:#6B9DD1;}#export-svg .note{stroke:hsl(52.6829268293, 60%, 73.9215686275%);fill:#fff5ad;}#export-svg .noteText,#export-svg .noteText&gt;tspan{fill:#333;stroke:none;font-weight:normal;}#export-svg .activation0{fill:#DCEEFF;stroke:#6B9DD1;}#export-svg .activation1{fill:#DCEEFF;stroke:#6B9DD1;}#export-svg .activation2{fill:#DCEEFF;stroke:#6B9DD1;}#export-svg .actorPopupMenu{position:absolute;}#export-svg .actorPopupMenuPanel{position:absolute;fill:#CFE7FF;box-shadow:0px 8px 16px 0px rgba(0,0,0,0.2);filter:drop-shadow(3px 5px 2px rgb(0 0 0 / 0.4));}#export-svg .actor-man circle,#export-svg line{fill:#CFE7FF;stroke-width:2px;}#export-svg g rect.rect{filter:drop-shadow( 1px 2px 2px rgba(185,185,185,1));stroke:#7AA6D8;stroke-width:1;}#export-svg .node .neo-node{stroke:#7AA6D8;}#export-svg [data-look="neo"].node rect,#export-svg [data-look="neo"].cluster rect,#export-svg [data-look="neo"].node polygon{stroke:url(#export-svg-gradient);filter:drop-shadow( 1px 2px 2px rgba(185,185,185,1));}#export-svg [data-look="neo"].node path{stroke:url(#export-svg-gradient);stroke-width:1px;}#export-svg [data-look="neo"].node .outer-path{filter:drop-shadow( 1px 2px 2px rgba(185,185,185,1));}#export-svg [data-look="neo"].node .neo-line path{stroke:#7AA6D8;filter:none;}#export-svg [data-look="neo"].node circle{stroke:url(#export-svg-gradient);filter:drop-shadow( 1px 2px 2px rgba(185,185,185,1));}#export-svg [data-look="neo"].node circle .state-start{fill:#000000;}#export-svg [data-look="neo"].icon-shape .icon{fill:url(#export-svg-gradient);filter:drop-shadow( 1px 2px 2px rgba(185,185,185,1));}#export-svg [data-look="neo"].icon-shape .icon-neo path{stroke:url(#export-svg-gradient);filter:drop-shadow( 1px 2px 2px rgba(185,185,185,1));}#export-svg :root{--mermaid-font-family:"trebuchet ms",verdana,arial,sans-serif;}</style><g/><defs><symbol id="export-svg-computer" width="24" height="24"><path transform="scale(.5)" d="M2 2v13h20v-13h-20zm18 11h-16v-9h16v9zm-10.228 6l.466-1h3.524l.467 1h-4.457zm14.228 3h-24l2-6h2.104l-1.33 4h18.45l-1.297-4h2.073l2 6zm-5-10h-14v-7h14v7z"/></symbol></defs><defs><symbol id="export-svg-database" fill-rule="evenodd" clip-rule="evenodd"><path transform="scale(.5)" d="M12.258.001l.256.004.255.005.253.008.251.01.249.012.247.015.246.016.242.019.241.02.239.023.236.024.233.027.231.028.229.031.225.032.223.034.22.036.217.038.214.04.211.041.208.043.205.045.201.046.198.048.194.05.191.051.187.053.183.054.18.056.175.057.172.059.168.06.163.061.16.063.155.064.15.066.074.033.073.033.071.034.07.034.069.035.068.035.067.035.066.035.064.036.064.036.062.036.06.036.06.037.058.037.058.037.055.038.055.038.053.038.052.038.051.039.05.039.048.039.047.039.045.04.044.04.043.04.041.04.04.041.039.041.037.041.036.041.034.041.033.042.032.042.03.042.029.042.027.042.026.043.024.043.023.043.021.043.02.043.018.044.017.043.015.044.013.044.012.044.011.045.009.044.007.045.006.045.004.045.002.045.001.045v17l-.001.045-.002.045-.004.045-.006.045-.007.045-.009.044-.011.045-.012.044-.013.044-.015.044-.017.043-.018.044-.02.043-.021.043-.023.043-.024.043-.026.043-.027.042-.029.042-.03.042-.032.042-.033.042-.034.041-.036.041-.037.041-.039.041-.04.041-.041.04-.043.04-.044.04-.045.04-.047.039-.048.039-.05.039-.051.039-.052.038-.053.038-.055.038-.055.038-.058.037-.058.037-.06.037-.06.036-.062.036-.064.036-.064.036-.066.035-.067.035-.068.035-.069.035-.07.034-.071.034-.073.033-.074.033-.15.066-.155.064-.16.063-.163.061-.168.06-.172.059-.175.057-.18.056-.183.054-.187.053-.191.051-.194.05-.198.048-.201.046-.205.045-.208.043-.211.041-.214.04-.217.038-.22.036-.223.034-.225.032-.229.031-.231.028-.233.027-.236.024-.239.023-.241.02-.242.019-.246.016-.247.015-.249.012-.251.01-.253.008-.255.005-.256.004-.258.001-.258-.001-.256-.004-.255-.005-.253-.008-.251-.01-.249-.012-.247-.015-.245-.016-.243-.019-.241-.02-.238-.023-.236-.024-.234-.027-.231-.028-.228-.031-.226-.032-.223-.034-.22-.036-.217-.038-.214-.04-.211-.041-.208-.043-.204-.045-.201-.046-.198-.048-.195-.05-.19-.051-.187-.053-.184-.054-.179-.056-.176-.057-.172-.059-.167-.06-.164-.061-.159-.063-.155-.064-.151-.066-.074-.033-.072-.033-.072-.034-.07-.034-.069-.035-.068-.035-.067-.035-.066-.035-.064-.036-.063-.036-.062-.036-.061-.036-.06-.037-.058-.037-.057-.037-.056-.038-.055-.038-.053-.038-.052-.038-.051-.039-.049-.039-.049-.039-.046-.039-.046-.04-.044-.04-.043-.04-.041-.04-.04-.041-.039-.041-.037-.041-.036-.041-.034-.041-.033-.042-.032-.042-.03-.042-.029-.042-.027-.042-.026-.043-.024-.043-.023-.043-.021-.043-.02-.043-.018-.044-.017-.043-.015-.044-.013-.044-.012-.044-.011-.045-.009-.044-.007-.045-.006-.045-.004-.045-.002-.045-.001-.045v-17l.001-.045.002-.045.004-.045.006-.045.007-.045.009-.044.011-.045.012-.044.013-.044.015-.044.017-.043.018-.044.02-.043.021-.043.023-.043.024-.043.026-.043.027-.042.029-.042.03-.042.032-.042.033-.042.034-.041.036-.041.037-.041.039-.041.04-.041.041-.04.043-.04.044-.04.046-.04.046-.039.049-.039.049-.039.051-.039.052-.038.053-.038.055-.038.056-.038.057-.037.058-.037.06-.037.061-.036.062-.036.063-.036.064-.036.066-.035.067-.035.068-.035.069-.035.07-.034.072-.034.072-.033.074-.033.151-.066.155-.064.159-.063.164-.061.167-.06.172-.059.176-.057.179-.056.184-.054.187-.053.19-.051.195-.05.198-.048.201-.046.204-.045.208-.043.211-.041.214-.04.217-.038.22-.036.223-.034.226-.032.228-.031.231-.028.234-.027.236-.024.238-.023.241-.02.243-.019.245-.016.247-.015.249-.012.251-.01.253-.008.255-.005.256-.004.258-.001.258.001zm-9.258 20.499v.01l.001.021.003.021.004.022.005.021.006.022.007.022.009.023.01.022.011.023.012.023.013.023.015.023.016.024.017.023.018.024.019.024.021.024.022.025.023.024.024.025.052.049.056.05.061.051.066.051.07.051.075.051.079.052.084.052.088.052.092.052.097.052.102.051.105.052.11.052.114.051.119.051.123.051.127.05.131.05.135.05.139.048.144.049.147.047.152.047.155.047.16.045.163.045.167.043.171.043.176.041.178.041.183.039.187.039.19.037.194.035.197.035.202.033.204.031.209.03.212.029.216.027.219.025.222.024.226.021.23.02.233.018.236.016.24.015.243.012.246.01.249.008.253.005.256.004.259.001.26-.001.257-.004.254-.005.25-.008.247-.011.244-.012.241-.014.237-.016.233-.018.231-.021.226-.021.224-.024.22-.026.216-.027.212-.028.21-.031.205-.031.202-.034.198-.034.194-.036.191-.037.187-.039.183-.04.179-.04.175-.042.172-.043.168-.044.163-.045.16-.046.155-.046.152-.047.148-.048.143-.049.139-.049.136-.05.131-.05.126-.05.123-.051.118-.052.114-.051.11-.052.106-.052.101-.052.096-.052.092-.052.088-.053.083-.051.079-.052.074-.052.07-.051.065-.051.06-.051.056-.05.051-.05.023-.024.023-.025.021-.024.02-.024.019-.024.018-.024.017-.024.015-.023.014-.024.013-.023.012-.023.01-.023.01-.022.008-.022.006-.022.006-.022.004-.022.004-.021.001-.021.001-.021v-4.127l-.077.055-.08.053-.083.054-.085.053-.087.052-.09.052-.093.051-.095.05-.097.05-.1.049-.102.049-.105.048-.106.047-.109.047-.111.046-.114.045-.115.045-.118.044-.12.043-.122.042-.124.042-.126.041-.128.04-.13.04-.132.038-.134.038-.135.037-.138.037-.139.035-.142.035-.143.034-.144.033-.147.032-.148.031-.15.03-.151.03-.153.029-.154.027-.156.027-.158.026-.159.025-.161.024-.162.023-.163.022-.165.021-.166.02-.167.019-.169.018-.169.017-.171.016-.173.015-.173.014-.175.013-.175.012-.177.011-.178.01-.179.008-.179.008-.181.006-.182.005-.182.004-.184.003-.184.002h-.37l-.184-.002-.184-.003-.182-.004-.182-.005-.181-.006-.179-.008-.179-.008-.178-.01-.176-.011-.176-.012-.175-.013-.173-.014-.172-.015-.171-.016-.17-.017-.169-.018-.167-.019-.166-.02-.165-.021-.163-.022-.162-.023-.161-.024-.159-.025-.157-.026-.156-.027-.155-.027-.153-.029-.151-.03-.15-.03-.148-.031-.146-.032-.145-.033-.143-.034-.141-.035-.14-.035-.137-.037-.136-.037-.134-.038-.132-.038-.13-.04-.128-.04-.126-.041-.124-.042-.122-.042-.12-.044-.117-.043-.116-.045-.113-.045-.112-.046-.109-.047-.106-.047-.105-.048-.102-.049-.1-.049-.097-.05-.095-.05-.093-.052-.09-.051-.087-.052-.085-.053-.083-.054-.08-.054-.077-.054v4.127zm0-5.654v.011l.001.021.003.021.004.021.005.022.006.022.007.022.009.022.01.022.011.023.012.023.013.023.015.024.016.023.017.024.018.024.019.024.021.024.022.024.023.025.024.024.052.05.056.05.061.05.066.051.07.051.075.052.079.051.084.052.088.052.092.052.097.052.102.052.105.052.11.051.114.051.119.052.123.05.127.051.131.05.135.049.139.049.144.048.147.048.152.047.155.046.16.045.163.045.167.044.171.042.176.042.178.04.183.04.187.038.19.037.194.036.197.034.202.033.204.032.209.03.212.028.216.027.219.025.222.024.226.022.23.02.233.018.236.016.24.014.243.012.246.01.249.008.253.006.256.003.259.001.26-.001.257-.003.254-.006.25-.008.247-.01.244-.012.241-.015.237-.016.233-.018.231-.02.226-.022.224-.024.22-.025.216-.027.212-.029.21-.03.205-.032.202-.033.198-.035.194-.036.191-.037.187-.039.183-.039.179-.041.175-.042.172-.043.168-.044.163-.045.16-.045.155-.047.152-.047.148-.048.143-.048.139-.05.136-.049.131-.05.126-.051.123-.051.118-.051.114-.052.11-.052.106-.052.101-.052.096-.052.092-.052.088-.052.083-.052.079-.052.074-.051.07-.052.065-.051.06-.05.056-.051.051-.049.023-.025.023-.024.021-.025.02-.024.019-.024.018-.024.017-.024.015-.023.014-.023.013-.024.012-.022.01-.023.01-.023.008-.022.006-.022.006-.022.004-.021.004-.022.001-.021.001-.021v-4.139l-.077.054-.08.054-.083.054-.085.052-.087.053-.09.051-.093.051-.095.051-.097.05-.1.049-.102.049-.105.048-.106.047-.109.047-.111.046-.114.045-.115.044-.118.044-.12.044-.122.042-.124.042-.126.041-.128.04-.13.039-.132.039-.134.038-.135.037-.138.036-.139.036-.142.035-.143.033-.144.033-.147.033-.148.031-.15.03-.151.03-.153.028-.154.028-.156.027-.158.026-.159.025-.161.024-.162.023-.163.022-.165.021-.166.02-.167.019-.169.018-.169.017-.171.016-.173.015-.173.014-.175.013-.175.012-.177.011-.178.009-.179.009-.179.007-.181.007-.182.005-.182.004-.184.003-.184.002h-.37l-.184-.002-.184-.003-.182-.004-.182-.005-.181-.007-.179-.007-.179-.009-.178-.009-.176-.011-.176-.012-.175-.013-.173-.014-.172-.015-.171-.016-.17-.017-.169-.018-.167-.019-.166-.02-.165-.021-.163-.022-.162-.023-.161-.024-.159-.025-.157-.026-.156-.027-.155-.028-.153-.028-.151-.03-.15-.03-.148-.031-.146-.033-.145-.033-.143-.033-.141-.035-.14-.036-.137-.036-.136-.037-.134-.038-.132-.039-.13-.039-.128-.04-.126-.041-.124-.042-.122-.043-.12-.043-.117-.044-.116-.044-.113-.046-.112-.046-.109-.046-.106-.047-.105-.048-.102-.049-.1-.049-.097-.05-.095-.051-.093-.051-.09-.051-.087-.053-.085-.052-.083-.054-.08-.054-.077-.054v4.139zm0-5.666v.011l.001.02.003.022.004.021.005.022.006.021.007.022.009.023.01.022.011.023.012.023.013.023.015.023.016.024.017.024.018.023.019.024.021.025.022.024.023.024.024.025.052.05.056.05.061.05.066.051.07.051.075.052.079.051.084.052.088.052.092.052.097.052.102.052.105.051.11.052.114.051.119.051.123.051.127.05.131.05.135.05.139.049.144.048.147.048.152.047.155.046.16.045.163.045.167.043.171.043.176.042.178.04.183.04.187.038.19.037.194.036.197.034.202.033.204.032.209.03.212.028.216.027.219.025.222.024.226.021.23.02.233.018.236.017.24.014.243.012.246.01.249.008.253.006.256.003.259.001.26-.001.257-.003.254-.006.25-.008.247-.01.244-.013.241-.014.237-.016.233-.018.231-.02.226-.022.224-.024.22-.025.216-.027.212-.029.21-.03.205-.032.202-.033.198-.035.194-.036.191-.037.187-.039.183-.039.179-.041.175-.042.172-.043.168-.044.163-.045.16-.045.155-.047.152-.047.148-.048.143-.049.139-.049.136-.049.131-.051.126-.05.123-.051.118-.052.114-.051.11-.052.106-.052.101-.052.096-.052.092-.052.088-.052.083-.052.079-.052.074-.052.07-.051.065-.051.06-.051.056-.05.051-.049.023-.025.023-.025.021-.024.02-.024.019-.024.018-.024.017-.024.015-.023.014-.024.013-.023.012-.023.01-.022.01-.023.008-.022.006-.022.006-.022.004-.022.004-.021.001-.021.001-.021v-4.153l-.077.054-.08.054-.083.053-.085.053-.087.053-.09.051-.093.051-.095.051-.097.05-.1.049-.102.048-.105.048-.106.048-.109.046-.111.046-.114.046-.115.044-.118.044-.12.043-.122.043-.124.042-.126.041-.128.04-.13.039-.132.039-.134.038-.135.037-.138.036-.139.036-.142.034-.143.034-.144.033-.147.032-.148.032-.15.03-.151.03-.153.028-.154.028-.156.027-.158.026-.159.024-.161.024-.162.023-.163.023-.165.021-.166.02-.167.019-.169.018-.169.017-.171.016-.173.015-.173.014-.175.013-.175.012-.177.01-.178.01-.179.009-.179.007-.181.006-.182.006-.182.004-.184.003-.184.001-.185.001-.185-.001-.184-.001-.184-.003-.182-.004-.182-.006-.181-.006-.179-.007-.179-.009-.178-.01-.176-.01-.176-.012-.175-.013-.173-.014-.172-.015-.171-.016-.17-.017-.169-.018-.167-.019-.166-.02-.165-.021-.163-.023-.162-.023-.161-.024-.159-.024-.157-.026-.156-.027-.155-.028-.153-.028-.151-.03-.15-.03-.148-.032-.146-.032-.145-.033-.143-.034-.141-.034-.14-.036-.137-.036-.136-.037-.134-.038-.132-.039-.13-.039-.128-.041-.126-.041-.124-.041-.122-.043-.12-.043-.117-.044-.116-.044-.113-.046-.112-.046-.109-.046-.106-.048-.105-.048-.102-.048-.1-.05-.097-.049-.095-.051-.093-.051-.09-.052-.087-.052-.085-.053-.083-.053-.08-.054-.077-.054v4.153zm8.74-8.179l-.257.004-.254.005-.25.008-.247.011-.244.012-.241.014-.237.016-.233.018-.231.021-.226.022-.224.023-.22.026-.216.027-.212.028-.21.031-.205.032-.202.033-.198.034-.194.036-.191.038-.187.038-.183.04-.179.041-.175.042-.172.043-.168.043-.163.045-.16.046-.155.046-.152.048-.148.048-.143.048-.139.049-.136.05-.131.05-.126.051-.123.051-.118.051-.114.052-.11.052-.106.052-.101.052-.096.052-.092.052-.088.052-.083.052-.079.052-.074.051-.07.052-.065.051-.06.05-.056.05-.051.05-.023.025-.023.024-.021.024-.02.025-.019.024-.018.024-.017.023-.015.024-.014.023-.013.023-.012.023-.01.023-.01.022-.008.022-.006.023-.006.021-.004.022-.004.021-.001.021-.001.021.001.021.001.021.004.021.004.022.006.021.006.023.008.022.01.022.01.023.012.023.013.023.014.023.015.024.017.023.018.024.019.024.02.025.021.024.023.024.023.025.051.05.056.05.06.05.065.051.07.052.074.051.079.052.083.052.088.052.092.052.096.052.101.052.106.052.11.052.114.052.118.051.123.051.126.051.131.05.136.05.139.049.143.048.148.048.152.048.155.046.16.046.163.045.168.043.172.043.175.042.179.041.183.04.187.038.191.038.194.036.198.034.202.033.205.032.21.031.212.028.216.027.22.026.224.023.226.022.231.021.233.018.237.016.241.014.244.012.247.011.25.008.254.005.257.004.26.001.26-.001.257-.004.254-.005.25-.008.247-.011.244-.012.241-.014.237-.016.233-.018.231-.021.226-.022.224-.023.22-.026.216-.027.212-.028.21-.031.205-.032.202-.033.198-.034.194-.036.191-.038.187-.038.183-.04.179-.041.175-.042.172-.043.168-.043.163-.045.16-.046.155-.046.152-.048.148-.048.143-.048.139-.049.136-.05.131-.05.126-.051.123-.051.118-.051.114-.052.11-.052.106-.052.101-.052.096-.052.092-.052.088-.052.083-.052.079-.052.074-.051.07-.052.065-.051.06-.05.056-.05.051-.05.023-.025.023-.024.021-.024.02-.025.019-.024.018-.024.017-.023.015-.024.014-.023.013-.023.012-.023.01-.023.01-.022.008-.022.006-.023.006-.021.004-.022.004-.021.001-.021.001-.021-.001-.021-.001-.021-.004-.021-.004-.022-.006-.021-.006-.023-.008-.022-.01-.022-.01-.023-.012-.023-.013-.023-.014-.023-.015-.024-.017-.023-.018-.024-.019-.024-.02-.025-.021-.024-.023-.024-.023-.025-.051-.05-.056-.05-.06-.05-.065-.051-.07-.052-.074-.051-.079-.052-.083-.052-.088-.052-.092-.052-.096-.052-.101-.052-.106-.052-.11-.052-.114-.052-.118-.051-.123-.051-.126-.051-.131-.05-.136-.05-.139-.049-.143-.048-.148-.048-.152-.048-.155-.046-.16-.046-.163-.045-.168-.043-.172-.043-.175-.042-.179-.041-.183-.04-.187-.038-.191-.038-.194-.036-.198-.034-.202-.033-.205-.032-.21-.031-.212-.028-.216-.027-.22-.026-.224-.023-.226-.022-.231-.021-.233-.018-.237-.016-.241-.014-.244-.012-.247-.011-.25-.008-.254-.005-.257-.004-.26-.001-.26.001z"/></symbol></defs><defs><symbol id="export-svg-clock" width="24" height="24"><path transform="scale(.5)" d="M12 2c5.514 0 10 4.486 10 10s-4.486 10-10 10-10-4.486-10-10 4.486-10 10-10zm0-2c-6.627 0-12 5.373-12 12s5.373 12 12 12 12-5.373 12-12-5.373-12-12-12zm5.848 12.459c.202.038.202.333.001.372-1.907.361-6.045 1.111-6.547 1.111-.719 0-1.301-.582-1.301-1.301 0-.512.77-5.447 1.125-7.445.034-.192.312-.181.343.014l.985 6.238 5.394 1.011z"/></symbol></defs><defs><marker id="export-svg-arrowhead" refX="7.9" refY="5" markerUnits="userSpaceOnUse" markerWidth="12" markerHeight="12" orient="auto-start-reverse"><path d="M -1 0 L 10 5 L 0 10 z"/></marker></defs><defs><marker id="export-svg-crosshead" markerWidth="15" markerHeight="8" orient="auto" refX="4" refY="4.5"><path fill="none" stroke="#000000" stroke-width="1pt" d="M 1,2 L 6,7 M 6,2 L 1,7" style="stroke-dasharray: 0, 0;"/></marker></defs><defs><marker id="export-svg-filled-head" refX="15.5" refY="7" markerWidth="20" markerHeight="28" orient="auto"><path d="M 18,7 L9,13 L14,7 L9,1 Z"/></marker></defs><defs><marker id="export-svg-sequencenumber" refX="15" refY="15" markerWidth="60" markerHeight="40" orient="auto" markerUnits="userSpaceOnUse"><circle cx="15" cy="15" r="10"/></marker></defs><defs><marker id="export-svg-solidTopArrowHead" refX="7.9" refY="7.25" markerUnits="userSpaceOnUse" markerWidth="12" markerHeight="12" orient="auto-start-reverse"><path d="M 0 0 L 10 8 L 0 8 z"/></marker></defs><defs><marker id="export-svg-solidBottomArrowHead" refX="7.9" refY="0.75" markerUnits="userSpaceOnUse" markerWidth="12" markerHeight="12" orient="auto-start-reverse"><path d="M 0 0 L 10 0 L 0 8 z"/></marker></defs><defs><marker id="export-svg-stickTopArrowHead" refX="7.5" refY="7" markerUnits="userSpaceOnUse" markerWidth="12" markerHeight="12" orient="auto-start-reverse"><path d="M 0 0 L 7 7" stroke="black" stroke-width="1.5" fill="none"/></marker></defs><defs><marker id="export-svg-stickBottomArrowHead" refX="7.5" refY="0" markerUnits="userSpaceOnUse" markerWidth="12" markerHeight="12" orient="auto-start-reverse"><path d="M 0 7 L 7 0" stroke="black" stroke-width="1.5" fill="none"/></marker></defs><defs><filter id="export-svg-drop-shadow" height="130%" width="130%"><feDropShadow dx="4" dy="4" stdDeviation="0" flood-opacity="0.06" flood-color="#FFFFFF"/></filter></defs><g data-et="control-structure" data-id="i28"><line x1="299" y1="1083" x2="2456" y2="1083" class="loopLine"/><line x1="2456" y1="1083" x2="2456" y2="1473" class="loopLine"/><line x1="299" y1="1473" x2="2456" y2="1473" class="loopLine"/><line x1="299" y1="1083" x2="299" y2="1473" class="loopLine"/><line x1="299" y1="1325" x2="2456" y2="1325" class="loopLine" style="stroke-dasharray: 3, 3;"/><polygon points="299,1083 349,1083 349,1111 340.6,1118 299,1118" class="labelBox"/><text x="324" y="1103" text-anchor="middle" dominant-baseline="middle" alignment-baseline="middle" style="font-size: 16px; font-weight: 400;" class="labelText">alt</text><text x="1402.5" y="1101" text-anchor="middle" style="font-size: 16px; font-weight: 400;" class="loopText"><tspan x="1402.5">[Wrapper generado]</tspan></text><text x="1377.5" y="1343" text-anchor="middle" style="font-size: 16px; font-weight: 400;" class="loopText">[Sin propiedades generadas]</text></g><g class="actor-man actor-top" name="Usuario" data-et="participant" data-type="actor" data-id="Usuario" style="stroke: rgb(107, 157, 209);"><line id="actor-man-torso22" x1="75" y1="27.5" x2="75" y2="37.5"/><line id="actor-man-arms22" x1="66" y1="31.5" x2="84" y2="31.5"/><line x1="66" y1="45" x2="75" y2="37.5"/><line x1="75" y1="37.5" x2="83" y2="45"/><circle cx="75" cy="20" r="7.5" width="75" height="32.5"/><text x="75" y="55" style="text-anchor: middle; font-size: 16px; font-weight: 400;" dominant-baseline="central" alignment-baseline="central" class="actor actor-man"><tspan x="75" dy="0">Usuario</tspan></text></g><text x="226" y="80" text-anchor="middle" dominant-baseline="middle" alignment-baseline="middle" style="font-size: 16px; font-weight: 400;" class="messageText" dy="1em">Proporciona contrato Solidity</text><line x1="76" y1="113" x2="376" y2="113" class="messageLine0" data-et="message" data-id="i0" data-from="Usuario" data-to="Client" stroke-width="2" stroke="none" marker-end="url(#export-svg-arrowhead)" style="fill: none;"/><text x="627" y="128" text-anchor="middle" dominant-baseline="middle" alignment-baseline="middle" style="font-size: 16px; font-weight: 400;" class="messageText" dy="1em">detect_contract_name(contract_path)</text><line x1="384" y1="161" x2="870" y2="161" class="messageLine0" data-et="message" data-id="i1" data-from="Client" data-to="Runner" stroke-width="2" stroke="none" marker-end="url(#export-svg-arrowhead)" style="fill: none;"/><text x="633" y="176" text-anchor="middle" dominant-baseline="middle" alignment-baseline="middle" style="font-size: 16px; font-weight: 400;" class="messageText" dy="1em">contract_name</text><line x1="876" y1="209" x2="390" y2="209" class="messageLine1" data-et="message" data-id="i2" data-from="Runner" data-to="Client" stroke-width="2" stroke="none" style="stroke-dasharray: 3, 3; fill: none;" marker-end="url(#export-svg-arrowhead)"/><text x="627" y="224" text-anchor="middle" dominant-baseline="middle" alignment-baseline="middle" style="font-size: 16px; font-weight: 400;" class="messageText" dy="1em">run_slither(contract_path)</text><line x1="384" y1="257" x2="870" y2="257" class="messageLine0" data-et="message" data-id="i3" data-from="Client" data-to="Runner" stroke-width="2" stroke="none" marker-end="url(#export-svg-arrowhead)" style="fill: none;"/><text x="1012" y="272" text-anchor="middle" dominant-baseline="middle" alignment-baseline="middle" style="font-size: 16px; font-weight: 400;" class="messageText" dy="1em">Ejecutar análisis estático</text><line x1="878" y1="305" x2="1146" y2="305" class="messageLine0" data-et="message" data-id="i4" data-from="Runner" data-to="Slither" stroke-width="2" stroke="none" marker-end="url(#export-svg-arrowhead)" style="fill: none;"/><text x="1018" y="320" text-anchor="middle" dominant-baseline="middle" alignment-baseline="middle" style="font-size: 16px; font-weight: 400;" class="messageText" dy="1em">JSON crudo</text><line x1="1152" y1="353" x2="884" y2="353" class="messageLine1" data-et="message" data-id="i5" data-from="Slither" data-to="Runner" stroke-width="2" stroke="none" style="stroke-dasharray: 3, 3; fill: none;" marker-end="url(#export-svg-arrowhead)"/><text x="633" y="368" text-anchor="middle" dominant-baseline="middle" alignment-baseline="middle" style="font-size: 16px; font-weight: 400;" class="messageText" dy="1em">slither_raw</text><line x1="876" y1="401" x2="390" y2="401" class="messageLine1" data-et="message" data-id="i6" data-from="Runner" data-to="Client" stroke-width="2" stroke="none" style="stroke-dasharray: 3, 3; fill: none;" marker-end="url(#export-svg-arrowhead)"/><text x="627" y="416" text-anchor="middle" dominant-baseline="middle" alignment-baseline="middle" style="font-size: 16px; font-weight: 400;" class="messageText" dy="1em">run_mythril(contract_path)</text><line x1="384" y1="449" x2="870" y2="449" class="messageLine0" data-et="message" data-id="i7" data-from="Client" data-to="Runner" stroke-width="2" stroke="none" marker-end="url(#export-svg-arrowhead)" style="fill: none;"/><text x="1112" y="464" text-anchor="middle" dominant-baseline="middle" alignment-baseline="middle" style="font-size: 16px; font-weight: 400;" class="messageText" dy="1em">Ejecutar ejecución simbólica</text><line x1="878" y1="497" x2="1346" y2="497" class="messageLine0" data-et="message" data-id="i8" data-from="Runner" data-to="Mythril" stroke-width="2" stroke="none" marker-end="url(#export-svg-arrowhead)" style="fill: none;"/><text x="1118" y="512" text-anchor="middle" dominant-baseline="middle" alignment-baseline="middle" style="font-size: 16px; font-weight: 400;" class="messageText" dy="1em">JSON crudo</text><line x1="1352" y1="545" x2="884" y2="545" class="messageLine1" data-et="message" data-id="i9" data-from="Mythril" data-to="Runner" stroke-width="2" stroke="none" style="stroke-dasharray: 3, 3; fill: none;" marker-end="url(#export-svg-arrowhead)"/><text x="633" y="560" text-anchor="middle" dominant-baseline="middle" alignment-baseline="middle" style="font-size: 16px; font-weight: 400;" class="messageText" dy="1em">mythril_raw</text><line x1="876" y1="593" x2="390" y2="593" class="messageLine1" data-et="message" data-id="i10" data-from="Runner" data-to="Client" stroke-width="2" stroke="none" style="stroke-dasharray: 3, 3; fill: none;" marker-end="url(#export-svg-arrowhead)"/><text x="965" y="608" text-anchor="middle" dominant-baseline="middle" alignment-baseline="middle" style="font-size: 16px; font-weight: 400;" class="messageText" dy="1em">normalize_slither_output(slither_raw)</text><line x1="384" y1="641" x2="1546" y2="641" class="messageLine0" data-et="message" data-id="i11" data-from="Client" data-to="Normalizer" stroke-width="2" stroke="none" marker-end="url(#export-svg-arrowhead)" style="fill: none;"/><text x="971" y="656" text-anchor="middle" dominant-baseline="middle" alignment-baseline="middle" style="font-size: 16px; font-weight: 400;" class="messageText" dy="1em">slither_normalized</text><line x1="1552" y1="689" x2="390" y2="689" class="messageLine1" data-et="message" data-id="i12" data-from="Normalizer" data-to="Client" stroke-width="2" stroke="none" style="stroke-dasharray: 3, 3; fill: none;" marker-end="url(#export-svg-arrowhead)"/><text x="965" y="704" text-anchor="middle" dominant-baseline="middle" alignment-baseline="middle" style="font-size: 16px; font-weight: 400;" class="messageText" dy="1em">normalize_mythril_output(mythril_raw)</text><line x1="384" y1="737" x2="1546" y2="737" class="messageLine0" data-et="message" data-id="i13" data-from="Client" data-to="Normalizer" stroke-width="2" stroke="none" marker-end="url(#export-svg-arrowhead)" style="fill: none;"/><text x="971" y="752" text-anchor="middle" dominant-baseline="middle" alignment-baseline="middle" style="font-size: 16px; font-weight: 400;" class="messageText" dy="1em">mythril_normalized</text><line x1="1552" y1="785" x2="390" y2="785" class="messageLine1" data-et="message" data-id="i14" data-from="Normalizer" data-to="Client" stroke-width="2" stroke="none" style="stroke-dasharray: 3, 3; fill: none;" marker-end="url(#export-svg-arrowhead)"/><text x="1065" y="800" text-anchor="middle" dominant-baseline="middle" alignment-baseline="middle" style="font-size: 16px; font-weight: 400;" class="messageText" dy="1em">correlate(slither_normalized, mythril_normalized)</text><line x1="384" y1="833" x2="1746" y2="833" class="messageLine0" data-et="message" data-id="i15" data-from="Client" data-to="Correlator" stroke-width="2" stroke="none" marker-end="url(#export-svg-arrowhead)" style="fill: none;"/><text x="1071" y="848" text-anchor="middle" dominant-baseline="middle" alignment-baseline="middle" style="font-size: 16px; font-weight: 400;" class="messageText" dy="1em">correlated_report</text><line x1="1752" y1="881" x2="390" y2="881" class="messageLine1" data-et="message" data-id="i16" data-from="Correlator" data-to="Client" stroke-width="2" stroke="none" style="stroke-dasharray: 3, 3; fill: none;" marker-end="url(#export-svg-arrowhead)"/><text x="1165" y="896" text-anchor="middle" dominant-baseline="middle" alignment-baseline="middle" style="font-size: 16px; font-weight: 400;" class="messageText" dy="1em">generate(correlated_report, contract_path, contract_name)</text><line x1="384" y1="929" x2="1946" y2="929" class="messageLine0" data-et="message" data-id="i17" data-from="Client" data-to="Adapter" stroke-width="2" stroke="none" marker-end="url(#export-svg-arrowhead)" style="fill: none;"/><text x="2096" y="944" text-anchor="middle" dominant-baseline="middle" alignment-baseline="middle" style="font-size: 16px; font-weight: 400;" class="messageText" dy="1em">detector_from_swc(swc_id)</text><line x1="1954" y1="977" x2="2238" y2="977" class="messageLine0" data-et="message" data-id="i18" data-from="Adapter" data-to="Catalog" stroke-width="2" stroke="none" marker-end="url(#export-svg-arrowhead)" style="fill: none;"/><text x="2102" y="992" text-anchor="middle" dominant-baseline="middle" alignment-baseline="middle" style="font-size: 16px; font-weight: 400;" class="messageText" dy="1em">Plantillas disponibles</text><line x1="2244" y1="1025" x2="1960" y2="1025" class="messageLine1" data-et="message" data-id="i19" data-from="Catalog" data-to="Adapter" stroke-width="2" stroke="none" style="stroke-dasharray: 3, 3; fill: none;" marker-end="url(#export-svg-arrowhead)"/><text x="1171" y="1040" text-anchor="middle" dominant-baseline="middle" alignment-baseline="middle" style="font-size: 16px; font-weight: 400;" class="messageText" dy="1em">wrapper + metadata</text><line x1="1952" y1="1073" x2="390" y2="1073" class="messageLine1" data-et="message" data-id="i20" data-from="Adapter" data-to="Client" stroke-width="2" stroke="none" style="stroke-dasharray: 3, 3; fill: none;" marker-end="url(#export-svg-arrowhead)"/><text x="627" y="1133" text-anchor="middle" dominant-baseline="middle" alignment-baseline="middle" style="font-size: 16px; font-weight: 400;" class="messageText" dy="1em">run_echidna(wrapper_path, contract_name_echidna)</text><line x1="384" y1="1166" x2="870" y2="1166" class="messageLine0" data-et="message" data-id="i22" data-from="Client" data-to="Runner" stroke-width="2" stroke="none" marker-end="url(#export-svg-arrowhead)" style="fill: none;"/><text x="1658" y="1181" text-anchor="middle" dominant-baseline="middle" alignment-baseline="middle" style="font-size: 16px; font-weight: 400;" class="messageText" dy="1em">Ejecutar fuzzing</text><line x1="878" y1="1214" x2="2438" y2="1214" class="messageLine0" data-et="message" data-id="i23" data-from="Runner" data-to="Echidna" stroke-width="2" stroke="none" marker-end="url(#export-svg-arrowhead)" style="fill: none;"/><text x="1664" y="1229" text-anchor="middle" dominant-baseline="middle" alignment-baseline="middle" style="font-size: 16px; font-weight: 400;" class="messageText" dy="1em">Resultados</text><line x1="2444" y1="1262" x2="884" y2="1262" class="messageLine1" data-et="message" data-id="i24" data-from="Echidna" data-to="Runner" stroke-width="2" stroke="none" style="stroke-dasharray: 3, 3; fill: none;" marker-end="url(#export-svg-arrowhead)"/><text x="633" y="1277" text-anchor="middle" dominant-baseline="middle" alignment-baseline="middle" style="font-size: 16px; font-weight: 400;" class="messageText" dy="1em">echidna_raw</text><line x1="876" y1="1310" x2="390" y2="1310" class="messageLine1" data-et="message" data-id="i25" data-from="Runner" data-to="Client" stroke-width="2" stroke="none" style="stroke-dasharray: 3, 3; fill: none;" marker-end="url(#export-svg-arrowhead)"/><text x="384" y="1370" text-anchor="middle" dominant-baseline="middle" alignment-baseline="middle" style="font-size: 16px; font-weight: 400;" class="messageText" dy="1em">Omitir fuzzing</text><path d="M 384,1403 C 444,1393 444,1433 384,1423" class="messageLine0" data-et="message" data-id="i27" data-from="Client" data-to="Client" stroke-width="2" stroke="none" marker-end="url(#export-svg-arrowhead)" style="fill: none;"/><text x="1511" y="1488" text-anchor="middle" dominant-baseline="middle" alignment-baseline="middle" style="font-size: 16px; font-weight: 400;" class="messageText" dy="1em">generate_report(contract_path, correlated_report, echidna_raw, metadata)</text><line x1="384" y1="1521" x2="2638" y2="1521" class="messageLine0" data-et="message" data-id="i29" data-from="Client" data-to="Reporter" stroke-width="2" stroke="none" marker-end="url(#export-svg-arrowhead)" style="fill: none;"/><text x="1517" y="1536" text-anchor="middle" dominant-baseline="middle" alignment-baseline="middle" style="font-size: 16px; font-weight: 400;" class="messageText" dy="1em">informe_final</text><line x1="2644" y1="1569" x2="390" y2="1569" class="messageLine1" data-et="message" data-id="i30" data-from="Reporter" data-to="Client" stroke-width="2" stroke="none" style="stroke-dasharray: 3, 3; fill: none;" marker-end="url(#export-svg-arrowhead)"/><text x="232" y="1584" text-anchor="middle" dominant-baseline="middle" alignment-baseline="middle" style="font-size: 16px; font-weight: 400;" class="messageText" dy="1em">Mostrar resultados</text><line x1="382" y1="1617" x2="82" y2="1617" class="messageLine1" data-et="message" data-id="i31" data-from="Client" data-to="Usuario" stroke-width="2" stroke="none" style="stroke-dasharray: 3, 3; fill: none;" marker-end="url(#export-svg-arrowhead)"/><g class="actor-man actor-bottom" name="Usuario" style="stroke: rgb(107, 157, 209);"><line id="actor-man-torso32" x1="75" y1="1664.5" x2="75" y2="1674.5"/><line id="actor-man-arms32" x1="66" y1="1668.5" x2="84" y2="1668.5"/><line x1="66" y1="1682" x2="75" y2="1674.5"/><line x1="75" y1="1674.5" x2="83" y2="1682"/><circle cx="75" cy="1657" r="7.5" width="75" height="16.25"/><text x="75" y="1692" style="text-anchor: middle; font-size: 16px; font-weight: 400;" dominant-baseline="central" alignment-baseline="central" class="actor actor-man"><tspan x="75" dy="0">Usuario</tspan></text></g></svg>